<svg width="512" height="512" viewBox="0 0 512 512" fill="none" xmlns="http://www.w3.org/2000/svg">
<path d="M287 151C262.187 151 242 171.187 242 196C242 220.813 262.187 241 287 241C311.813 241 332 220.813 332 196C332 171.187 311.813 151 287 151ZM287 211C278.729 211 272 204.271 272 196C272 187.729 278.729 181 287 181C295.271 181 302 187.729 302 196C302 204.271 295.271 211 287 211Z" fill="white"/>
<path d="M407 271C382.187 271 362 291.187 362 316C362 340.813 382.187 361 407 361C431.813 361 452 340.813 452 316C452 291.187 431.813 271 407 271ZM407 331C398.729 331 392 324.271 392 316C392 307.729 398.729 301 407 301C415.271 301 422 307.729 422 316C422 324.271 415.271 331 407 331Z" fill="white"/>
<path d="M415.32 153.519C408.429 148.925 399.114 150.787 394.519 157.68L274.519 337.68C269.924 344.572 271.787 353.885 278.68 358.481C285.572 363.075 294.885 361.214 299.481 354.32L419.481 174.32C424.076 167.427 422.213 158.114 415.32 153.519Z" fill="white"/>
<path d="M497 91H15C6.716 91 0 97.716 0 106V196C0 204.284 6.716 211 15 211C39.813 211 60 231.187 60 256C60 280.813 39.813 301 15 301C6.716 301 0 307.716 0 316V406C0 414.284 6.716 421 15 421H497C505.284 421 512 414.284 512 406V106C512 97.716 505.284 91 497 91ZM482 391H150V376C150 367.716 143.284 361 135 361C126.716 361 120 367.716 120 376V391H30V329.494C64.191 322.525 90 292.219 90 256C90 219.781 64.191 189.476 30 182.507V121H121.25V136C121.25 144.284 127.966 151 136.25 151C144.534 151 151.25 144.284 151.25 136V121H482V391Z" fill="white"/>
<path d="M135 271C126.716 271 120 277.716 120 286V316C120 324.284 126.716 331 135 331C143.284 331 150 324.284 150 316V286C150 277.716 143.284 271 135 271Z" fill="white"/>
<path d="M135 181C126.716 181 120 187.716 120 196V226C120 234.284 126.716 241 135 241C143.284 241 150 234.284 150 226V196C150 187.716 143.284 181 135 181Z" fill="white"/>
</svg>
